<svg width="80" height="80" viewBox="0 0 80 80" fill="none" xmlns="http://www.w3.org/2000/svg">
  
  <circle cx="40" cy="40" r="36" fill="#0F172A" stroke="white" stroke-width="3.2"/>
  <!-- Major ticks -->
  <line x1="40" y1="6"  x2="40" y2="12" stroke="white" stroke-width="2.4" stroke-linecap="round"/>
  <line x1="40" y1="68" x2="40" y2="74" stroke="white" stroke-width="2.4" stroke-linecap="round"/>
  <line x1="6"  y1="40" x2="12" y2="40" stroke="white" stroke-width="2.4" stroke-linecap="round"/>
  <line x1="68" y1="40" x2="74" y2="40" stroke="white" stroke-width="2.4" stroke-linecap="round"/>
  <!-- Minor ticks -->
  <line x1="59.0" y1="9.8"  x2="56.4" y2="14.2" stroke="white" stroke-width="1.2" stroke-linecap="round" opacity=".3"/>
  <line x1="70.2" y1="21.0" x2="65.4" y2="23.8" stroke="white" stroke-width="1.2" stroke-linecap="round" opacity=".3"/>
  <line x1="70.2" y1="59.0" x2="65.4" y2="56.4" stroke="white" stroke-width="1.2" stroke-linecap="round" opacity=".3"/>
  <line x1="59.0" y1="70.2" x2="56.4" y2="65.4" stroke="white" stroke-width="1.2" stroke-linecap="round" opacity=".3"/>
  <line x1="21.0" y1="70.2" x2="23.8" y2="65.4" stroke="white" stroke-width="1.2" stroke-linecap="round" opacity=".3"/>
  <line x1="9.8"  y1="59.0" x2="14.2" y2="56.4" stroke="white" stroke-width="1.2" stroke-linecap="round" opacity=".3"/>
  <line x1="9.8"  y1="21.0" x2="14.2" y2="23.8" stroke="white" stroke-width="1.2" stroke-linecap="round" opacity=".3"/>
  <line x1="21.0" y1="9.8"  x2="23.8" y2="14.2" stroke="white" stroke-width="1.2" stroke-linecap="round" opacity=".3"/>
  <!-- W and S as embedded paths — no font dependency -->
  <path d="M38.49954531676266 52.812973628372234H32.13397999393756L28.660200060624433 37.99030009093664Q28.02364352834192 35.371324643831464 27.58714762049106 32.51591391330706Q27.150651712640194 34.898454076993026 26.877841770233402 36.144286147317366Q26.605031827826615 37.39011821764171 23.003940588056988 52.812973628372234H16.63837526523189L10.036374658987572 27.187026371627763H15.474386177629585L19.184601394361927 43.73749621097302L20.021218551076082 47.73870869960594Q20.530463776902092 45.21066989996969 21.01242800848742 42.90997271900576Q21.49439224007275 40.60927553804183 24.640800242497725 27.187026371627763H30.642618975447107L33.87996362534101 40.82752349196726Q34.26189754471052 42.35525916944529 35.17126401939982 47.73870869960594L35.62594725674447 45.628978478326765L36.58987571991513 41.44589269475598L39.68172173385875 27.187026371627763H45.11973325250076Z" fill="white"/>
  <path d="M68.54501364049713 45.42891785389512Q68.54501364049713 49.19369505910882 65.75325856320097 51.185207638678385Q62.96150348590483 53.17672021824795 57.55986662625038 53.17672021824795Q52.631100333434375 53.17672021824795 49.83025159139133 51.430736586844496Q47.029402849348294 49.68475295544104 46.22916035162171 46.13822370415277L51.41254925735072 45.28341921794483Q51.93998181267051 47.320400121248866 53.46771749014853 48.23886026068506Q54.99545316762656 49.15732040012125 57.70536526220067 49.15732040012125Q63.325250075780545 49.15732040012125 63.325250075780545 45.73810245528948Q63.325250075780545 44.64686268566232 62.67959987875114 43.93755683540466Q62.03394968172174 43.228250985147014 60.86086692937254 42.755380418308576Q59.687784177023346 42.28250985147014 56.35950287966051 41.60957866020006Q53.48590481964232 40.936647468929976 52.358290391027595 40.52743255531979Q51.23067596241286 40.118217641709606 50.32130948772356 39.56350409214913Q49.41194301303426 39.00879054258866 48.77538648075175 38.22673537435587Q48.13882994846924 37.44468020612307 47.78417702334041 36.38981509548348Q47.42952409821159 35.33494998484389 47.42952409821159 33.97090027280994Q47.42952409821159 30.497120339496817 50.03940588056987 28.651106395877537Q52.64928766292817 26.805092452258258 57.63261594422553 26.805092452258258Q62.39769627159746 26.805092452258258 64.78933010003031 28.29645347074871Q67.18096392846317 29.78781448923916 67.87208244922704 33.225219763564716L62.67050621400425 33.93452561382237Q62.270384965140956 32.27947862988785 61.04274022431041 31.44286147317369Q59.81509548347985 30.60624431645953 57.523491967262814 30.60624431645953Q52.64928766292817 30.60624431645953 52.64928766292817 33.66171567141558Q52.64928766292817 34.66201879357381 53.167626553501066 35.29857532585632Q53.685965444073965 35.93513185813883 54.704455895725985 36.380721430736585Q55.722946347378 36.82631100333434 58.83297969081541 37.49924219460442Q62.52500757805396 38.28129736283722 64.11639890876023 38.94513488936041Q65.7077902394665 39.6089724158836 66.6353440436496 40.49105789633222Q67.56289784783269 41.373143376780845 68.05395574416491 42.6007881176114Q68.54501364049713 43.82843285844195 68.54501364049713 45.42891785389512Z" fill="#2563EB"/>
</svg>